<svg width="198" height="191" viewBox="0 0 198 191" fill="none" xmlns="http://www.w3.org/2000/svg">
<path d="M0 95.5C2.29541e-06 70.1719 10.4303 45.8811 28.9965 27.9714C47.5626 10.0616 72.7436 8.75604e-06 99 0C125.256 -8.75601e-06 150.437 10.0616 169.003 27.9712C187.57 45.8811 198 70.1717 198 95.5H148.5C148.5 82.8359 143.285 70.6904 134.002 61.7356C124.719 52.7807 112.128 47.75 99 47.75C85.8718 47.75 73.2812 52.7807 63.9982 61.7356C54.7151 70.6904 49.5 82.8359 49.5 95.5H0Z" fill="black"/>
<path d="M148.5 95.5C148.5 108.164 143.285 120.31 134.002 129.264C124.719 138.219 112.128 143.25 99 143.25C85.8718 143.25 73.2812 138.219 63.9982 129.264C54.7151 120.31 49.5 108.164 49.5 95.5H148.5Z" fill="black"/>
<path fill-rule="evenodd" clip-rule="evenodd" d="M13.2443 143.25H184.755C167.638 171.795 135.644 191 98.9999 191C62.3558 191 30.3618 171.795 13.2443 143.25Z" fill="black"/>
</svg>
